<?xml version="1.0" encoding="UTF-8"?>
<svg id="Layer_2" data-name="Layer 2" xmlns="http://www.w3.org/2000/svg" viewBox="0 0 631 119.95">
  <defs>
    <style>
      .cls-1 {
        stroke: #8e4fc4;
        stroke-miterlimit: 10;
        stroke-width: 3px;
      }

      .cls-1, .cls-2 {
        fill: #8e4fc4;
      }
    </style>
  </defs>
  <g id="Layer_1-2" data-name="Layer 1">
    <path class="cls-1" d="M16.2,81.16l53.13.33v-.08s.12-13.35.12-13.35h.11s13.2,0,13.2,0l.2-53.07-13.16-.08-.27-13.33v-.04s-10.61-.04-10.61-.04H16.54s-.02,0-.02,0l-.03,13.33-13.35.07h-.08s-1.54,103.38-1.54,103.38l14.21.14.47-37.28ZM29.67,14.88v-.23s26.7.05,26.7.05l13.13,13.41.13,26.77h-.15s-13.2-.08-13.2-.08l-.03,13.18v.23s-40.03-.23-40.03-.23l.06-39.93,13.4.03-.03-13.2Z"/>
    <g>
      <path class="cls-2" d="M98.1,118.43v-8.92h-8.92v-44.6h8.92v-8.92h44.6v8.92h8.92v44.6h-8.92v8.92h-44.6ZM107.02,109.51h26.76v-44.6h-26.76v44.6Z"/>
      <path class="cls-2" d="M169.45,118.43v-8.92h-8.92v-8.92h17.84v8.92h26.76v-17.84h-35.68v-8.92h-8.92v-17.84h8.92v-8.92h44.6v8.92h8.92v8.92h-17.84v-8.92h-26.76v17.84h35.68v8.92h8.92v17.84h-8.92v8.92h-44.6Z"/>
      <path class="cls-2" d="M248.79,118.43v-53.52h-17.84v-8.92h53.52v8.92h-17.84v53.52h-17.84Z"/>
      <path class="cls-2" d="M291.67,118.43v-62.44h17.84v8.92h8.92v8.92h8.92v-8.92h8.92v-8.92h17.84v62.44h-17.84v-35.68h-8.92v17.84h-8.92v-17.84h-8.92v35.68h-17.84Z"/>
      <path class="cls-2" d="M373.68,118.43v-8.92h-8.92v-44.6h8.92v-8.92h44.6v8.92h8.92v44.6h-8.92v8.92h-44.6ZM382.6,109.51h26.76v-44.6h-26.76v44.6Z"/>
      <path class="cls-2" d="M436.12,118.43v-8.92h-8.92v-44.6h8.92v-8.92h44.6v8.92h8.92v44.6h-8.92v8.92h-44.6ZM445.04,109.51h26.76v-44.6h-26.76v44.6Z"/>
      <path class="cls-2" d="M496.25,118.43v-62.44h53.52v8.92h8.92v26.76h-17.84v8.92h8.92v8.92h8.92v8.92h-26.76v-8.92h-8.92v-8.92h-8.92v17.84h-17.84ZM514.08,91.67h17.84v-8.92h8.92v-17.84h-26.76v26.76Z"/>
      <path class="cls-2" d="M568.56,118.43v-62.44h62.44v8.92h-44.6v17.84h35.68v8.92h-35.68v17.84h44.6v8.92h-62.44Z"/>
    </g>
  </g>
</svg>